<?xml version="1.0" standalone="no"?>
<!DOCTYPE svg PUBLIC "-//W3C//DTD SVG 20010904//EN"
 "http://www.w3.org/TR/2001/REC-SVG-20010904/DTD/svg10.dtd">
<svg version="1.0" xmlns="http://www.w3.org/2000/svg"
 width="320.000000pt" height="320.000000pt" viewBox="0 0 320.000000 320.000000"
 preserveAspectRatio="xMidYMid meet">
<metadata>
Created by potrace 1.14, written by Peter Selinger 2001-2017
</metadata>
<g transform="translate(0.000000,320.000000) scale(0.100000,-0.100000)"
fill="#000000" stroke="none">
<path d="M33 2634 c-13 -34 2 -47 72 -61 120 -25 173 -69 194 -163 13 -56 14
-915 1 -1161 -13 -267 -20 -282 -149 -302 -55 -8 -72 -15 -77 -30 -3 -10 -1
-24 4 -29 6 -6 123 -10 309 -10 l298 -1 0 29 c0 29 -1 29 -84 41 -134 19 -151
40 -170 216 -12 108 -15 1115 -3 1133 4 7 90 -85 219 -235 116 -135 379 -438
585 -672 205 -234 389 -444 408 -467 l35 -41 208 -3 c186 -3 209 -1 218 14 17
31 0 45 -69 56 -36 6 -78 20 -92 30 -52 39 -55 54 -58 373 -4 345 -11 324 102
323 156 -1 167 -10 326 -260 210 -331 312 -448 445 -510 98 -46 232 -65 338
-48 27 5 37 12 37 24 0 14 -13 21 -50 29 -28 6 -65 18 -82 27 -53 27 -206 184
-293 299 -113 149 -315 465 -315 492 0 18 13 30 60 53 91 46 183 138 228 228
36 75 37 78 37 191 0 110 -2 119 -32 181 -63 130 -164 202 -343 246 -67 17
-122 19 -522 19 -428 1 -448 0 -454 -17 -7 -22 12 -48 34 -48 8 0 44 -5 79
-11 120 -21 136 -53 153 -309 12 -175 13 -940 2 -958 -11 -16 -84 60 -453 473
-464 521 -636 727 -692 835 l-19 35 -215 1 c-168 1 -216 -2 -220 -12z m2095
-74 c105 -14 182 -51 245 -120 69 -74 98 -147 105 -260 11 -214 -71 -355 -238
-404 -67 -20 -329 -23 -348 -4 -9 9 -12 108 -12 383 0 342 1 373 18 388 30 27
109 33 230 17z"/>
</g>
</svg>
